<svg width="24" height="24" viewBox="0 0 24 24" fill="none" xmlns="http://www.w3.org/2000/svg">
<g id="Icon/X">
<path id="Vector" d="M17.5 16.0859L13.4142 12.0001L17.4998 7.9143C17.6874 7.72676 17.7927 7.47241 17.7927 7.20719C17.7927 6.94197 17.6874 6.68762 17.4998 6.50009C17.3123 6.31255 17.058 6.20719 16.7927 6.20719C16.5275 6.20719 16.2732 6.31255 16.0856 6.50009L12 10.5859L7.91434 6.50012C7.7268 6.31259 7.47244 6.20723 7.20723 6.20723C6.94201 6.20723 6.68766 6.31259 6.50012 6.50012C6.31259 6.68766 6.20723 6.94201 6.20723 7.20723C6.20723 7.47245 6.31259 7.7268 6.50012 7.91434L10.5858 12.0001L6.50012 16.0857C6.31258 16.2732 6.20723 16.5276 6.20723 16.7928C6.20723 17.058 6.31259 17.3124 6.50012 17.4999C6.68766 17.6875 6.94201 17.7928 7.20723 17.7928C7.47244 17.7928 7.7268 17.6875 7.91433 17.4999L12 13.4143L16.0858 17.5001C16.2733 17.6876 16.5277 17.793 16.7929 17.793C17.0581 17.793 17.3125 17.6876 17.5 17.5001C17.6875 17.3126 17.7929 17.0582 17.7929 16.793C17.7929 16.5278 17.6875 16.2734 17.5 16.0859Z" fill="#C3C3C6"/>
</g>
</svg>
